<svg id="Layer_1" data-name="Layer 1" xmlns="http://www.w3.org/2000/svg" viewBox="0 0 30 30"><defs><style>.cls-1{fill:#9c9fa0;}.cls-2{fill:#26323a;}.cls-3{fill:#e2e5e8;}.cls-4{fill:#ccd0d3;}.cls-5{fill:#8b95a5;}.cls-6{fill:#11161a;}.cls-7{fill:#595e60;opacity:0.09;isolation:isolate;}</style></defs><title>bus_ver</title><path class="cls-1" d="M11.09,24.94V2.59a1.22,1.22,0,0,1,.41-1l1.31-1V27.53L11.6,26.34A2,2,0,0,1,11.09,24.94Z"/><path class="cls-2" d="M18.88,26.19V25.13a1.13,1.13,0,0,1-1.13,1.15H13a1.15,1.15,0,0,1-1.13-1.15v1.06a1.92,1.92,0,0,0,1.91,1.91H17A1.91,1.91,0,0,0,18.88,26.19Z"/><path class="cls-3" d="M18.56,29.35h.28a.21.21,0,0,0,.22-.22h0l-.15-2.6V1.8A1.14,1.14,0,0,0,17.76.65H13A1.15,1.15,0,0,0,11.88,1.8h0V25.48L11.75,29c0,.22-.07.39.14.39h.28a.21.21,0,0,0,.22-.22h0l-.16-1.88a1.13,1.13,0,0,0,.76.29h4.77a1.17,1.17,0,0,0,.74-.26L18.42,29C18.41,29.18,18.35,29.35,18.56,29.35Z"/><rect class="cls-2" x="13.71" y="0.65" width="3.4" height="0.65"/><rect class="cls-4" x="13.38" y="11.52" width="4.03" height="11.17"/><path class="cls-5" d="M13.29,22.81V11.41h4.22v11.4Zm.21-11.17V22.58h3.81v-11Z"/><rect class="cls-6" x="15.24" y="27.53" width="0.26" height="0.57"/><path class="cls-7" d="M12.26,26.38V1.8A1.15,1.15,0,0,1,13.41.65H13A1.15,1.15,0,0,0,11.87,1.8V26.38A1.16,1.16,0,0,0,13,27.53h.39a1.16,1.16,0,0,1-1.15-1.15Z"/><path class="cls-7" d="M18.56,1.8V26.38a1.15,1.15,0,0,1-1.15,1.15h.39A1.15,1.15,0,0,0,19,26.38h0V1.8A1.14,1.14,0,0,0,17.8.65h-.4a1.14,1.14,0,0,1,1.16,1.13Z"/><ellipse class="cls-2" cx="11.13" cy="10.51" rx="0.19" ry="1.87"/><ellipse class="cls-2" cx="11.13" cy="6.29" rx="0.19" ry="1.87"/><ellipse class="cls-2" cx="11.13" cy="21.57" rx="0.19" ry="1.87"/></svg>