<svg id="Layer_1" data-name="Layer 1" xmlns="http://www.w3.org/2000/svg" viewBox="0 0 60 60"><defs><style>.cls-1{fill:#fff;}.cls-2{fill:#e74c3c;}</style></defs><title>Artboard 1</title><path class="cls-1" d="M30,59c-1.16-2-2.3-4-3.44-5.91-3-5.07-5.75-9.86-8.33-14.81a80.18,80.18,0,0,1-6.24-14.82A17.78,17.78,0,0,1,14.1,9.12,18.28,18.28,0,0,1,26.49.81,21.56,21.56,0,0,1,30.13.5a18,18,0,0,1,18.5,16.88,19.62,19.62,0,0,1-1.12,8.92c-4.2,11-10.33,21-16.82,31.51Z"/><path class="cls-2" d="M30.14,1h0a17.55,17.55,0,0,1,18,16.42A19.07,19.07,0,0,1,47,26.12C42.86,37.1,36.74,47,30.27,57.55L30,58c-1-1.76-2-3.48-3-5.19C24,47.79,21.2,43,18.62,38.06a80.07,80.07,0,0,1-6.2-14.72,17.29,17.29,0,0,1,2.1-13.95A17.81,17.81,0,0,1,26.57,1.3,21.59,21.59,0,0,1,30.14,1m0-1a22.68,22.68,0,0,0-3.72.31c-10.68,1.78-18,12.74-14.95,23.31a80.72,80.72,0,0,0,6.28,14.91c3.71,7.12,7.91,14,12.19,21.47,6.92-11.24,13.58-21.78,18-33.52a20.22,20.22,0,0,0,1.16-9.15A18.58,18.58,0,0,0,30.13,0Z"/><path class="cls-2" d="M41.88,11.53c.47,0,.93,0,1.38.08a3.31,3.31,0,0,1,1.79.63,1.38,1.38,0,0,1,.54,1A12.11,12.11,0,0,1,45.16,17a1.34,1.34,0,0,1-.09.24c-.24.58-.39.68-1,.68h-.45c-.53,0-.63-.1-.63-.64v-4c0-.37-.07-.47-.43-.53a5,5,0,0,0-.68,0v.33c0,5.2,0,10.4,0,15.61A1.76,1.76,0,0,1,41,30.33a7.56,7.56,0,0,1-.91.43c-.15.06-.22.13-.21.3,0,.55,0,1.1,0,1.65,0,.39-.1.57-.49.65a7,7,0,0,1-1.37.15A17.65,17.65,0,0,1,36,33.4c-.52-.06-.63-.25-.63-.78,0-.36,0-.72,0-1.08,0,0,0,0,0-.05H24.42v1.18c0,.46-.13.65-.58.73a7.9,7.9,0,0,1-1.28.11,20.5,20.5,0,0,1-2.07-.11c-.5-.06-.62-.27-.62-.76s0-1.07,0-1.6c0-.16-.06-.21-.19-.27a7.64,7.64,0,0,1-1.1-.57,1.58,1.58,0,0,1-.72-1.42v-16a2.1,2.1,0,0,0-.9.08c-.2.08-.22.24-.22.43v3.93c0,.67,0,.73-.74.73a4.34,4.34,0,0,0-.51,0,.61.61,0,0,1-.68-.4A7.59,7.59,0,0,1,14.35,16c-.12-.84-.16-1.68-.21-2.53A1.54,1.54,0,0,1,15.08,12,4.6,4.6,0,0,1,17,11.57c.29,0,.58,0,.89,0V10.38A2.45,2.45,0,0,1,19.67,7.8a12.3,12.3,0,0,1,2.94-.61A104.13,104.13,0,0,1,34.06,7a21.64,21.64,0,0,1,5,.52,7.74,7.74,0,0,1,1.63.59,2.17,2.17,0,0,1,1.17,2C41.89,10.58,41.88,11.05,41.88,11.53Zm-12-.95v-.05h-2.4a45.34,45.34,0,0,0-5.34.23,5.36,5.36,0,0,0-1.71.46,1,1,0,0,0-.57.93c0,3.13,0,6.25,0,9.37a1.2,1.2,0,0,0,.67,1.19,7.87,7.87,0,0,0,1.38.57,27.08,27.08,0,0,0,6.2.85A38,38,0,0,0,33,24.05a28.84,28.84,0,0,0,4.14-.58,6.37,6.37,0,0,0,2.18-.84,1.17,1.17,0,0,0,.54-1q0-4.65,0-9.32a1,1,0,0,0-.81-1.18L38.72,11a14.36,14.36,0,0,0-3.52-.41C33.43,10.55,31.66,10.58,29.89,10.58Zm0-2.55H25.46c-.3,0-.4.09-.4.39V9c0,.4.08.48.48.48h8.8a.32.32,0,0,0,.34-.34V8.46c0-.36-.08-.43-.44-.43Zm10,18.54h0c0-.25,0-.49,0-.73a.48.48,0,0,0-.43-.53,1.62,1.62,0,0,0-.49,0,6.93,6.93,0,0,0-3.41,1.56A1.27,1.27,0,0,0,35,28.05c0,.29.09.39.39.42A10.37,10.37,0,0,0,38,28.41,4.15,4.15,0,0,0,39.4,28a.87.87,0,0,0,.47-.83A5.28,5.28,0,0,1,39.86,26.57Zm-16.49,2,1-.06a.32.32,0,0,0,.33-.25,1.26,1.26,0,0,0-.25-1.12,4.07,4.07,0,0,0-.42-.41,7.49,7.49,0,0,0-2.52-1.27,2.33,2.33,0,0,0-1.2-.11.47.47,0,0,0-.44.54c0,.42,0,.85,0,1.27a.86.86,0,0,0,.48.84,3.43,3.43,0,0,0,.52.23A8.43,8.43,0,0,0,23.37,28.53Z"/><path class="cls-1" d="M27.39,27.75a2.48,2.48,0,1,1,2.46,2.47A2.48,2.48,0,0,1,27.39,27.75ZM27.85,29A2.33,2.33,0,0,0,30,30.09,2.3,2.3,0,0,0,31.89,29s0,0-.06,0l-1.9-.77a.17.17,0,0,0-.14,0l-.71.29Zm2-3.56c.1.72.2,1.42.31,2.12,0,0,0,.07.07.1l1.59,1.22s0,0,.06,0a2.37,2.37,0,0,0-2-3.48Zm-2.08,3.49,0,0,1.6-1.3a.21.21,0,0,0,.07-.13l.21-1.38c0-.22.07-.43.1-.66a2.35,2.35,0,0,0-2,1.15A2.31,2.31,0,0,0,27.82,28.89Z"/></svg>