<svg id="Layer_1" data-name="Layer 1" xmlns="http://www.w3.org/2000/svg" xmlns:xlink="http://www.w3.org/1999/xlink" viewBox="0 0 30 30"><defs><style>.cls-1{fill:none;clip-rule:evenodd;}.cls-2,.cls-27,.cls-76,.cls-78,.cls-80,.cls-82,.cls-83,.cls-84,.cls-85{fill-rule:evenodd;}.cls-2{opacity:0.26;}.cls-3{fill:#a6a8ab;}.cls-4{fill:#262529;}.cls-5{fill:#d6d6d6;}.cls-6{fill:#5c5c5c;}.cls-7{fill:#1c2426;}.cls-8{fill:#e0e0e0;}.cls-9{fill:#e6e7e8;}.cls-10{fill:#ff8000;}.cls-11{fill:#898989;}.cls-12{fill:#1e60a8;}.cls-13{fill:#4a484b;}.cls-14{fill:#b5b5b5;}.cls-15{fill:#7d7d7d;}.cls-16{fill:#2b2b2b;}.cls-17{fill:#b7bec4;}.cls-18{fill:url(#linear-gradient);}.cls-19{fill:#f7f7f7;}.cls-20{fill:#9a9c9e;}.cls-21{fill:url(#linear-gradient-2);}.cls-22{isolation:isolate;}.cls-23{fill:#858585;}.cls-24{fill:#626262;}.cls-25{fill:#424242;}.cls-26{fill:#76afe2;}.cls-27{fill:url(#linear-gradient-3);}.cls-28{clip-path:url(#clip-path);}.cls-29{fill:#babcbf;}.cls-30{fill:#bbbdc0;}.cls-31{fill:#bcbec1;}.cls-32{fill:#bdbfc2;}.cls-33{fill:#bec0c3;}.cls-34{fill:#bfc1c4;}.cls-35{fill:#c0c2c5;}.cls-36{fill:#c1c3c6;}.cls-37{fill:#c2c4c7;}.cls-38{fill:#c3c5c8;}.cls-39{fill:#c4c6c9;}.cls-40{fill:#c5c7ca;}.cls-41{fill:#c6c8cb;}.cls-42{fill:#c7c9cc;}.cls-43{fill:#c8cacd;}.cls-44{fill:#c9cbce;}.cls-45{fill:#cacccf;}.cls-46{fill:#cbcdd0;}.cls-47{fill:#ccced1;}.cls-48{fill:#cdcfd2;}.cls-49{fill:#ced0d3;}.cls-50{fill:#cfd1d4;}.cls-51{fill:#d0d2d5;}.cls-52{fill:#d1d4d6;}.cls-53{fill:#d2d5d7;}.cls-54{fill:#d3d6d8;}.cls-55{fill:#d4d7d9;}.cls-56{fill:#d5d8da;}.cls-57{fill:#d6d9db;}.cls-58{fill:#d7dadc;}.cls-59{fill:#d8dbdd;}.cls-60{fill:#d9dcde;}.cls-61{fill:#dadddf;}.cls-62{fill:#dbdee0;}.cls-63{fill:#dcdfe1;}.cls-64{fill:#dde0e2;}.cls-65{fill:#dee1e3;}.cls-66{fill:#dfe2e4;}.cls-67{fill:#e0e3e5;}.cls-68{fill:#e1e4e6;}.cls-69{fill:#e2e5e7;}.cls-70{fill:#e3e6e8;}.cls-71{fill:#e4e7e9;}.cls-72{fill:#e5e8ea;}.cls-73{fill:#e6e9eb;}.cls-74{fill:#e7eaec;}.cls-75{fill:#e8ebed;}.cls-76{fill:url(#linear-gradient-4);}.cls-77{clip-path:url(#clip-path-2);}.cls-78{fill:url(#linear-gradient-5);}.cls-79{clip-path:url(#clip-path-3);}.cls-80{fill:url(#linear-gradient-6);}.cls-81{clip-path:url(#clip-path-4);}.cls-82{fill:url(#linear-gradient-7);}.cls-83{fill:url(#radial-gradient);}.cls-84{fill:url(#linear-gradient-8);}.cls-85{fill:url(#radial-gradient-2);}.cls-86{fill:#5a5c5e;}.cls-87{fill:url(#linear-gradient-9);}.cls-88{fill:url(#linear-gradient-10);}.cls-89{fill:url(#linear-gradient-11);}.cls-90{fill:url(#linear-gradient-12);}.cls-91{fill:url(#linear-gradient-13);}.cls-92{fill:url(#linear-gradient-14);}.cls-93{fill:url(#linear-gradient-15);}.cls-94{fill:#202428;}.cls-95{fill:url(#linear-gradient-16);}.cls-96{fill:url(#linear-gradient-17);}.cls-97{fill:url(#linear-gradient-18);}.cls-98{fill:url(#linear-gradient-19);}.cls-99{fill:url(#linear-gradient-20);}.cls-100{fill:url(#linear-gradient-21);}.cls-101{fill:#1e5384;}.cls-102{fill:#363636;}</style><linearGradient id="linear-gradient" x1="1.14" y1="20.74" x2="5.27" y2="20.74" gradientTransform="matrix(-1, 0, 0, 1, 29.63, 0)" gradientUnits="userSpaceOnUse"><stop offset="0" stop-color="#6e7070"/><stop offset="0.17" stop-color="#a2a5a5"/><stop offset="0.92" stop-color="#bfbfbf"/><stop offset="1" stop-color="#d9d9d9"/></linearGradient><linearGradient id="linear-gradient-2" x1="26.11" y1="11.51" x2="26.54" y2="11.51" gradientTransform="matrix(-1, 0, 0, 1, 29.63, 0)" gradientUnits="userSpaceOnUse"><stop offset="0" stop-color="#a30b06"/><stop offset="1" stop-color="#e30700"/></linearGradient><linearGradient id="linear-gradient-3" x1="4.73" y1="23.71" x2="5.24" y2="23.53" gradientTransform="matrix(-1, 0, 0, 1, 29.63, 0)" gradientUnits="userSpaceOnUse"><stop offset="0" stop-color="#545557"/><stop offset="1" stop-color="#909294"/></linearGradient><clipPath id="clip-path"><path class="cls-1" d="M24.59,23.34a.49.49,0,0,0-.23.4h0c0,.37.48.07.48-.25h0C24.84,23.33,24.72,23.26,24.59,23.34Z"/></clipPath><linearGradient id="linear-gradient-4" x1="1.21" y1="21.81" x2="1.72" y2="21.63" xlink:href="#linear-gradient-3"/><clipPath id="clip-path-2"><path class="cls-1" d="M28.11,21.44a.49.49,0,0,0-.23.4h0c0,.37.48.07.48-.25h0C28.36,21.43,28.24,21.36,28.11,21.44Z"/></clipPath><linearGradient id="linear-gradient-5" x1="1.14" y1="20.89" x2="1.45" y2="20.78" gradientTransform="matrix(-1, 0, 0, 1, 29.63, 0)" gradientUnits="userSpaceOnUse"><stop offset="0" stop-color="#545557"/><stop offset="1" stop-color="#bbbdbf"/></linearGradient><clipPath id="clip-path-3"><path class="cls-1" d="M28.3,20.67a.29.29,0,0,0-.14.24h0c0,.24.29.05.29-.15h0C28.45,20.66,28.38,20.62,28.3,20.67Z"/></clipPath><linearGradient id="linear-gradient-6" x1="4.96" y1="22.83" x2="5.27" y2="22.72" xlink:href="#linear-gradient-5"/><clipPath id="clip-path-4"><path class="cls-1" d="M24.48,22.6a.31.31,0,0,0-.14.25h0c0,.23.29,0,.29-.16h0C24.63,22.6,24.56,22.55,24.48,22.6Z"/></clipPath><linearGradient id="linear-gradient-7" x1="4.38" y1="23.65" x2="4.59" y2="23.58" xlink:href="#linear-gradient-5"/><radialGradient id="radial-gradient" cx="4.5" cy="23.61" r="0.12" gradientTransform="matrix(-1, 0, 0, 1, 29.63, 0)" gradientUnits="userSpaceOnUse"><stop offset="0" stop-color="#fabb0f"/><stop offset="1" stop-color="#ff8000"/></radialGradient><linearGradient id="linear-gradient-8" x1="1.77" y1="22.19" x2="1.99" y2="22.11" xlink:href="#linear-gradient-5"/><radialGradient id="radial-gradient-2" cx="1.9" cy="22.15" r="0.12" xlink:href="#radial-gradient"/><linearGradient id="linear-gradient-9" x1="6.96" y1="21.02" x2="7.52" y2="21.02" gradientTransform="matrix(-1, 0, 0, 1, 29.63, 0)" gradientUnits="userSpaceOnUse"><stop offset="0" stop-color="#3c3d3d"/><stop offset="1" stop-color="#636363"/></linearGradient><linearGradient id="linear-gradient-10" x1="14.71" y1="8.64" x2="16.5" y2="8.64" gradientTransform="matrix(-1, 0, 0, 1, 29.63, 0)" gradientUnits="userSpaceOnUse"><stop offset="0" stop-color="#171717"/><stop offset="1" stop-color="#424242"/></linearGradient><linearGradient id="linear-gradient-11" x1="14.54" y1="8.74" x2="16.33" y2="8.74" xlink:href="#linear-gradient-10"/><linearGradient id="linear-gradient-12" x1="14.63" y1="8.69" x2="16.42" y2="8.69" xlink:href="#linear-gradient-10"/><linearGradient id="linear-gradient-13" x1="14.79" y1="8.6" x2="16.58" y2="8.6" xlink:href="#linear-gradient-10"/><linearGradient id="linear-gradient-14" x1="14.87" y1="8.55" x2="16.66" y2="8.55" xlink:href="#linear-gradient-10"/><linearGradient id="linear-gradient-15" x1="14.95" y1="8.5" x2="16.74" y2="8.5" xlink:href="#linear-gradient-10"/><linearGradient id="linear-gradient-16" x1="11.64" y1="10.4" x2="13.42" y2="10.4" xlink:href="#linear-gradient-10"/><linearGradient id="linear-gradient-17" x1="11.47" y1="10.5" x2="13.26" y2="10.5" xlink:href="#linear-gradient-10"/><linearGradient id="linear-gradient-18" x1="11.55" y1="10.45" x2="13.34" y2="10.45" xlink:href="#linear-gradient-10"/><linearGradient id="linear-gradient-19" x1="11.72" y1="10.36" x2="13.51" y2="10.36" xlink:href="#linear-gradient-10"/><linearGradient id="linear-gradient-20" x1="11.8" y1="10.31" x2="13.59" y2="10.31" xlink:href="#linear-gradient-10"/><linearGradient id="linear-gradient-21" x1="11.88" y1="10.26" x2="13.67" y2="10.26" xlink:href="#linear-gradient-10"/></defs><title>Artboard 2</title><path class="cls-2" d="M23.62,24.34l-.95.68a5.48,5.48,0,0,1-1,.25,5.8,5.8,0,0,1-1.46-.34L.86,13.68s-.22-.12-.23-.23.27-.31.27-.31l2.64-1.89Z"/><path class="cls-3" d="M3.08,12.17a.7.7,0,0,0,.28.51l1.2.86s1.66.89,1.66,1l.1.06c0-.68.49-1,1.07-.61a2.37,2.37,0,0,1,1,1.27l.09.38a1.34,1.34,0,0,1,0,.2L19,21.87a.85.85,0,0,1,0-.33.42.42,0,0,1,.1-.2L10,16a.29.29,0,0,1-.13-.23c0-.1.06-.14.14-.1l9.41,5.44.07,0h.29a1.66,1.66,0,0,1,.32.13l.2.14.07.06.11.1,0,0a.27.27,0,0,1,.07.08,2.49,2.49,0,0,1,.49.85l.09.39c0,.07,0,.13,0,.19l2.71,1.56c.15.09.27,0,.27-.16V21.87l-.22-1.51L23.7,18.9l0-.26-.07-.41A2.93,2.93,0,0,0,22,16.37L19.62,15,3.1,5.44v5.78l.26.15c.19.11-.26.2-.26.2Zm14.35,8.46v-.09h0l.15.09,0,0v.09h0l-.15-.08Zm-5.14-3v-.08h0l.15.08,0,0v.08h0l-.15-.08Zm8.56,3.84s0-.05,0,0l.27.16a.1.1,0,0,1,.06.09,0,0,0,0,1-.06,0l-.27-.16A.09.09,0,0,1,20.85,21.5ZM4.05,12.64v-.37a.06.06,0,0,1,.09,0l.65.38a.2.2,0,0,1,.09.15v.37c0,.06,0,.09-.09.06l-.65-.38A.2.2,0,0,1,4.05,12.64Zm-.54-1.36v-.19l18,10.42v.19Z"/><path class="cls-4" d="M8.31,15.7a1.92,1.92,0,0,0-.25-.87l.58-.16a1.81,1.81,0,0,0,.24.61,2,2,0,0,0,.33.42L8,16.29A.64.64,0,0,0,8.31,15.7Z"/><path class="cls-5" d="M4.49,12.43l-.2.11s0,0,0,0a.12.12,0,0,0,0,.09l.29-.17h0l-.5.29a.2.2,0,0,1-.09-.16l.41-.23Z"/><path class="cls-6" d="M8.31,15.7c0,.58-.42.81-.92.52a2,2,0,0,1-.92-1.58c0-.58.42-.82.92-.53A2,2,0,0,1,8.31,15.7Zm-.92.08c.29.17.54,0,.54-.3a1.18,1.18,0,0,0-.54-.93c-.29-.17-.53,0-.53.31a1.13,1.13,0,0,0,.53.92Z"/><path d="M7.39,13.94c-.58-.34-1.07-.07-1.07.61l.15.09c0-.58.42-.82.92-.53a2,2,0,0,1,.92,1.59l.15.09a1.34,1.34,0,0,0,0-.2l-.09-.38A2.37,2.37,0,0,0,7.39,13.94Z"/><polygon class="cls-4" points="12.31 17.57 12.29 17.58 12.29 17.66 12.31 17.7 12.46 17.79 12.48 17.77 12.48 17.69 12.46 17.65 12.31 17.57"/><path class="cls-7" d="M7.39,15c-.08-.05-.15,0-.15.09a.34.34,0,0,0,.15.26c.08.05.15,0,.15-.08A.33.33,0,0,0,7.39,15Z"/><polygon class="cls-8" points="21.82 19.96 21.82 19.87 21.84 19.86 21.91 19.91 21.82 19.96"/><polygon class="cls-9" points="3.52 11.09 3.51 11.28 21.56 21.7 21.56 21.51 3.52 11.09"/><path class="cls-4" d="M4.79,12.6a.2.2,0,0,1,.09.15v.37c0,.06,0,.09-.09.06l-.65-.38a.2.2,0,0,1-.09-.16v-.37a.06.06,0,0,1,.09,0Zm-.46.07.27.16s.05,0,.05,0a.12.12,0,0,0-.05-.09l-.27-.15s0,0,0,0a.12.12,0,0,0,0,.09Z"/><polygon class="cls-4" points="17.45 20.53 17.43 20.55 17.43 20.63 17.45 20.67 17.6 20.75 17.62 20.74 17.62 20.65 17.6 20.62 17.45 20.53"/><path class="cls-7" d="M20.08,22.32c-.09-.05-.16,0-.16.08a.34.34,0,0,0,.16.27c.08,0,.15,0,.15-.09A.34.34,0,0,0,20.08,22.32Z"/><path class="cls-3" d="M20.61,22.8c0,.34-.24.48-.54.31a1.2,1.2,0,0,1-.53-.93c0-.34.24-.47.54-.3A1.18,1.18,0,0,1,20.61,22.8Zm-.53-.13c.08,0,.15,0,.15-.09a.34.34,0,0,0-.15-.26c-.09-.05-.16,0-.16.08a.34.34,0,0,0,.16.27Z"/><path class="cls-6" d="M21,23c0,.58-.41.82-.92.53A2.06,2.06,0,0,1,19.16,22c0-.58.41-.81.92-.52A2,2,0,0,1,21,23Zm-.92.09c.3.17.54,0,.54-.31a1.18,1.18,0,0,0-.53-.92c-.3-.17-.54,0-.54.3a1.2,1.2,0,0,0,.53.93Z"/><path d="M20.08,21.26a.83.83,0,0,0-.68-.11.5.5,0,0,0-.24.19.86.86,0,0,0-.15.53l.15.09c0-.58.41-.81.92-.52A2,2,0,0,1,21,23l.16.09c0-.06,0-.12,0-.19l-.09-.39A2.37,2.37,0,0,0,20.08,21.26Z"/><path class="cls-10" d="M20.9,21.47s0,0,0,0a.09.09,0,0,0,0,.09l.27.16a0,0,0,0,0,.06,0,.1.1,0,0,0-.06-.09Z"/><path class="cls-11" d="M21.63,22.58v.55l2.1,1.21v.06l-2.1-1.21,2.1,1.21V24c0-.12-.19-.33-.43-.46l-1.24-.72Z"/><polygon class="cls-12" points="7.4 8.54 3.47 6.27 3.47 9.42 21.46 20.04 21.46 19 21.31 16.57 20.86 16.32 18.31 14.84 15.6 13.28 12.87 11.7 10.13 10.12 7.61 8.66 7.4 8.54"/><polygon class="cls-13" points="21.63 23.13 21.63 23.19 23.73 24.4 23.73 24.34 21.63 23.13"/><polygon class="cls-13" points="23.73 24.4 28.29 21.75 28.29 21.69 23.73 24.34 23.73 24.4"/><polygon class="cls-11" points="23.73 24.4 28.29 21.75 28.29 21.36 23.73 24.01 23.73 24.4"/><path class="cls-14" d="M24.05,24.69,28.61,22a.2.2,0,0,0,.09-.18l-4.57,2.65A.19.19,0,0,1,24.05,24.69Z"/><path class="cls-5" d="M23.83,23.73l4.56-2.65c-.17-.26-.48-.93-.63-1.18L23.2,22.55C23.35,22.8,23.66,23.47,23.83,23.73Z"/><path class="cls-5" d="M24,23.83l4.56-2.65-.17-.1-4.56,2.65Z"/><path class="cls-15" d="M22.35,20.28h0l0,0h0Z"/><path class="cls-16" d="M22.3,20.22a.07.07,0,0,1,0,.06s0,0,0,0l-.41-.24a.08.08,0,0,1,0-.06s0,0,0,0Zm-.38-.15,0,0,0,0,0,0,0,0Z"/><path class="cls-15" d="M22.36,20.3s0,.07,0,.08,0,0-.06,0l-.38-.22a.21.21,0,0,1-.1-.18v-.11l.5.29Zm-.47-.23.41.24s0,0,0,0a.07.07,0,0,0,0-.06L21.89,20s0,0,0,0a.08.08,0,0,0,0,.06Z"/><path class="cls-8" d="M22.38,20.3a.16.16,0,0,1,0,.1.06.06,0,0,1-.08,0l-.38-.22A.28.28,0,0,1,21.8,20v-.13l.53.31ZM21.82,20a.21.21,0,0,0,.1.18l.38.22s.05,0,.06,0,0,0,0-.08l0-.14-.5-.29V20Z"/><polygon class="cls-17" points="24.13 24.51 28.7 21.86 28.7 19.32 24.14 21.98 24.13 24.51"/><polygon class="cls-4" points="23.66 18.64 28.23 15.99 28.16 15.58 23.6 18.23 23.66 18.64"/><polygon class="cls-4" points="24.14 21.98 28.7 19.32 28.23 15.99 23.66 18.64 24.14 21.98"/><path class="cls-18" d="M25,21.75c.11.24.61.15.85.05a5.52,5.52,0,0,0,.58-.3c.21-.13.43-.26.58-.37a2.63,2.63,0,0,0,.84-1,1.29,1.29,0,0,1,.29-.44l.36-.21a1.77,1.77,0,0,0-.56.64A2.87,2.87,0,0,1,27,21.24l-.59.37a5.9,5.9,0,0,1-.6.31c-.24.1-.79.22-.92-.07-.06-.13-.31-.08-.54,0l.35-.2C24.83,21.64,24.93,21.66,25,21.75Z"/><path class="cls-10" d="M4.28,12.58s0-.05,0,0l.27.15a.12.12,0,0,1,.05.09s0,.05-.05,0l-.27-.16A.12.12,0,0,1,4.28,12.58Z"/><path class="cls-3" d="M7.93,15.48c0,.34-.25.47-.54.3a1.13,1.13,0,0,1-.53-.92c0-.34.24-.48.53-.31A1.18,1.18,0,0,1,7.93,15.48Zm-.54-.14c.08.05.15,0,.15-.08A.33.33,0,0,0,7.39,15c-.08-.05-.15,0-.15.09a.34.34,0,0,0,.15.26Z"/><path class="cls-9" d="M8.9,15.1c-.07,0-.13,0-.13.07a.3.3,0,0,0,.13.25l10.26,5.92a.5.5,0,0,1,.24-.19Z"/><polygon class="cls-19" points="21.92 20.02 21.9 20.03 21.92 20.07 21.94 20.05 21.92 20.02"/><polygon class="cls-9" points="7.66 2.79 24.18 12.33 26.59 13.72 22.03 16.37 19.62 14.98 3.1 5.44 7.66 2.79"/><polygon class="cls-3" points="7.84 7.74 11.45 5.67 9.3 4.42 5.69 6.49 7.84 7.74"/><polygon class="cls-20" points="23.68 20.51 23.82 22.01 23.73 24.34 21.63 23.13 21.69 19.16 23.68 20.51"/><path class="cls-20" d="M23.6,18.23l4.56-2.65a2.93,2.93,0,0,0-1.57-1.86L22,16.37A2.93,2.93,0,0,1,23.6,18.23Z"/><path class="cls-21" d="M3.35,11.37l-.26-.15v.35l.42.23v-.35S3.54,11.48,3.35,11.37Z"/><g class="cls-22"><polygon class="cls-23" points="17.12 12 18.86 10.99 18.43 10.16 16.69 11.18 17.12 12"/><polygon class="cls-24" points="16.69 11.18 18.43 10.16 14.1 7.66 12.36 8.68 16.69 11.18"/><polygon class="cls-25" points="12.36 8.68 11.92 9 17.12 12 16.69 11.18 12.36 8.68"/></g><g class="cls-22"><polygon class="cls-23" points="22.08 14.87 23.83 13.85 23.83 13.67 22.08 14.69 22.08 14.87"/><polygon class="cls-24" points="22.08 14.69 23.83 13.67 20.73 11.89 18.99 12.9 22.08 14.69"/><polygon class="cls-25" points="18.99 12.9 18.99 13.08 22.08 14.87 22.08 14.69 18.99 12.9"/></g><path class="cls-12" d="M23.85,18.22l2.79-1.58h0L28,15.88c.09-.05.16,0,.17.1l.44,3.08a.4.4,0,0,1-.17.29l-4.09,2.36c-.09.05-.17,0-.17-.1l-.47-3.1A.39.39,0,0,1,23.85,18.22Z"/><polygon class="cls-26" points="24.96 21.32 24.11 18.07 24.67 17.76 25.23 17.44 26.08 20.68 24.96 21.32"/><polygon points="24.51 21.35 24.5 21.43 27.21 20.17 27.19 20.02 24.51 21.35"/><path class="cls-27" d="M24.62,23.3a.55.55,0,0,0-.26.46h0c0,.43.55.09.55-.29h0A.18.18,0,0,0,24.62,23.3Z"/><g class="cls-28"><rect class="cls-29" x="24.36" y="23.26" width="0.48" height="0.85"/><path class="cls-29" d="M24.36,23.48c-.08.16-.06.33,0,.38s.24,0,.32-.2.06-.33,0-.37S24.44,23.33,24.36,23.48Z"/><path class="cls-30" d="M24.36,23.49c-.07.15-.06.32,0,.37s.24,0,.31-.2.06-.32,0-.37S24.44,23.33,24.36,23.49Z"/><path class="cls-31" d="M24.37,23.49c-.08.15-.06.31,0,.36s.24,0,.31-.19.06-.32,0-.36S24.44,23.34,24.37,23.49Z"/><path class="cls-32" d="M24.37,23.49c-.07.15-.06.31,0,.35s.23,0,.31-.18.05-.31,0-.36S24.44,23.34,24.37,23.49Z"/><path class="cls-33" d="M24.37,23.49c-.07.15-.05.3,0,.35s.22,0,.29-.19.06-.3,0-.34S24.45,23.35,24.37,23.49Z"/><path class="cls-34" d="M24.38,23.49c-.07.15-.06.3,0,.34s.22,0,.29-.18.05-.29,0-.33S24.45,23.35,24.38,23.49Z"/><path class="cls-35" d="M24.38,23.5c-.07.14-.05.28,0,.33s.22,0,.28-.18.06-.29,0-.33S24.45,23.36,24.38,23.5Z"/><path class="cls-36" d="M24.38,23.5c-.06.13-.05.28,0,.32s.2,0,.27-.17,0-.28,0-.32S24.45,23.36,24.38,23.5Z"/><path class="cls-37" d="M24.39,23.5c-.07.13-.05.27,0,.31s.2,0,.27-.16,0-.28,0-.32S24.45,23.37,24.39,23.5Z"/><path class="cls-38" d="M24.39,23.5c-.06.13-.05.27,0,.31s.2,0,.26-.17.05-.26,0-.3S24.46,23.37,24.39,23.5Z"/><path class="cls-39" d="M24.4,23.5c-.07.13,0,.26,0,.3s.19,0,.25-.16.05-.26,0-.29S24.46,23.38,24.4,23.5Z"/><path class="cls-40" d="M24.4,23.51c-.06.12,0,.25,0,.29s.19,0,.25-.16,0-.25,0-.29S24.46,23.38,24.4,23.51Z"/><path class="cls-41" d="M24.4,23.51c0,.12,0,.24,0,.28s.18,0,.24-.15,0-.25,0-.28S24.46,23.39,24.4,23.51Z"/><path class="cls-42" d="M24.41,23.51c-.06.12-.05.24,0,.27s.17,0,.23-.14,0-.24,0-.28S24.47,23.39,24.41,23.51Z"/><path class="cls-43" d="M24.41,23.51c-.05.11,0,.23,0,.27s.17,0,.22-.14.05-.24,0-.27S24.47,23.4,24.41,23.51Z"/><path class="cls-44" d="M24.42,23.51c-.06.11-.05.23,0,.26s.17,0,.22-.14,0-.22,0-.25S24.47,23.4,24.42,23.51Z"/><path class="cls-45" d="M24.42,23.52c-.05.1,0,.21,0,.24s.16,0,.22-.13,0-.21,0-.25S24.47,23.41,24.42,23.52Z"/><path class="cls-46" d="M24.42,23.52c-.05.1,0,.21,0,.24s.15,0,.2-.13,0-.21,0-.24S24.47,23.42,24.42,23.52Z"/><path class="cls-47" d="M24.43,23.52c-.05.1,0,.2,0,.23s.15,0,.2-.12,0-.2,0-.24A.18.18,0,0,0,24.43,23.52Z"/><path class="cls-48" d="M24.43,23.52c-.05.1,0,.2,0,.23a.18.18,0,0,0,.19-.12c.05-.1,0-.2,0-.23S24.48,23.43,24.43,23.52Z"/><path class="cls-49" d="M24.43,23.52c0,.09,0,.19,0,.22s.14,0,.18-.12,0-.18,0-.21S24.48,23.43,24.43,23.52Z"/><path class="cls-50" d="M24.44,23.52c-.05.09,0,.19,0,.21s.13,0,.18-.11,0-.18,0-.21S24.48,23.44,24.44,23.52Z"/><path class="cls-51" d="M24.44,23.53c0,.08,0,.17,0,.2s.13,0,.17-.11,0-.17,0-.2S24.48,23.44,24.44,23.53Z"/><path class="cls-52" d="M24.45,23.53c0,.08,0,.17,0,.19s.12,0,.16-.1,0-.17,0-.19S24.49,23.45,24.45,23.53Z"/><path class="cls-53" d="M24.45,23.53c0,.08,0,.16,0,.19s.12,0,.16-.1,0-.16,0-.19S24.49,23.45,24.45,23.53Z"/><path class="cls-54" d="M24.45,23.53c0,.08,0,.16,0,.18a.13.13,0,0,0,.15-.09c0-.08,0-.16,0-.18S24.49,23.46,24.45,23.53Z"/><path class="cls-55" d="M24.46,23.53c0,.08,0,.15,0,.17s.11,0,.15-.09,0-.14,0-.17S24.49,23.46,24.46,23.53Z"/><path class="cls-56" d="M24.46,23.54c0,.06,0,.14,0,.16s.1,0,.13-.09,0-.14,0-.16S24.49,23.47,24.46,23.54Z"/><path class="cls-57" d="M24.47,23.54c0,.06,0,.13,0,.15s.1,0,.13-.08,0-.13,0-.15S24.5,23.47,24.47,23.54Z"/><path class="cls-58" d="M24.47,23.54c0,.06,0,.13,0,.14s.1,0,.13-.07,0-.13,0-.15S24.5,23.48,24.47,23.54Z"/><path class="cls-59" d="M24.47,23.54c0,.06,0,.12,0,.14s.08,0,.11-.07,0-.12,0-.14S24.5,23.48,24.47,23.54Z"/><path class="cls-60" d="M24.48,23.54c0,.06,0,.12,0,.13s.08,0,.11-.07a.1.1,0,0,0,0-.13A.1.1,0,0,0,24.48,23.54Z"/><path class="cls-61" d="M24.48,23.55c0,.05,0,.1,0,.12s.08,0,.11-.07,0-.1,0-.12S24.51,23.49,24.48,23.55Z"/><path class="cls-62" d="M24.48,23.55a.09.09,0,0,0,0,.11s.07,0,.09-.06,0-.1,0-.11S24.51,23.5,24.48,23.55Z"/><path class="cls-63" d="M24.49,23.55s0,.09,0,.1.07,0,.09,0a.1.1,0,0,0,0-.11S24.51,23.5,24.49,23.55Z"/><path class="cls-64" d="M24.49,23.55s0,.09,0,.1.06,0,.08,0,0-.09,0-.1S24.51,23.51,24.49,23.55Z"/><path class="cls-65" d="M24.5,23.55s0,.08,0,.09.06,0,.08-.05a.06.06,0,0,0,0-.08S24.51,23.52,24.5,23.55Z"/><path class="cls-66" d="M24.5,23.55s0,.08,0,.09a.08.08,0,0,0,.07-.05s0-.07,0-.08S24.52,23.52,24.5,23.55Z"/><path class="cls-67" d="M24.5,23.56s0,.06,0,.07,0,0,.06,0a0,0,0,0,0,0-.07S24.52,23.53,24.5,23.56Z"/><path class="cls-68" d="M24.51,23.56a0,0,0,0,0,0,.06,0,0,0,0,0,.06,0s0-.06,0-.07A.06.06,0,0,0,24.51,23.56Z"/><path class="cls-69" d="M24.51,23.56s0,.05,0,.06a.05.05,0,0,0,0,0,0,0,0,0,0,0-.06S24.52,23.54,24.51,23.56Z"/><path class="cls-70" d="M24.52,23.56a0,0,0,0,0,0,.05s0,0,0,0,0,0,0,0S24.53,23.54,24.52,23.56Z"/><path class="cls-71" d="M24.52,23.56s0,0,0,0,0,0,0,0a.06.06,0,0,0,0,0Z"/><path class="cls-72" d="M24.52,23.57a0,0,0,0,0,0,0s0,0,0,0,0,0,0,0S24.53,23.55,24.52,23.57Z"/><path class="cls-73" d="M24.53,23.57s0,0,0,0,0,0,0,0v0A0,0,0,0,0,24.53,23.57Z"/><path class="cls-74" d="M24.53,23.57v0h0s0,0,0,0A0,0,0,0,0,24.53,23.57Z"/><polygon class="cls-75" points="24.53 23.57 24.54 23.58 24.54 23.58 24.54 23.57 24.53 23.57"/></g><path class="cls-76" d="M28.14,21.4a.55.55,0,0,0-.26.46h0c0,.43.55.09.55-.29h0A.18.18,0,0,0,28.14,21.4Z"/><g class="cls-77"><rect class="cls-29" x="27.88" y="21.37" width="0.48" height="0.85"/><path class="cls-29" d="M27.88,21.59c-.08.15-.06.32,0,.37s.24,0,.32-.2.06-.33,0-.38S28,21.43,27.88,21.59Z"/><path class="cls-30" d="M27.88,21.59c-.07.15-.06.32,0,.37s.24,0,.31-.2.07-.32,0-.37S28,21.43,27.88,21.59Z"/><path class="cls-31" d="M27.89,21.59c-.08.15-.06.31,0,.36s.24,0,.31-.19.06-.32,0-.36S28,21.44,27.89,21.59Z"/><path class="cls-32" d="M27.89,21.59c-.07.15-.06.31,0,.35s.22,0,.3-.18.05-.31,0-.36S28,21.44,27.89,21.59Z"/><path class="cls-33" d="M27.89,21.59c-.07.15-.05.3,0,.35s.22,0,.29-.19.06-.3,0-.34S28,21.45,27.89,21.59Z"/><path class="cls-34" d="M27.9,21.59c-.07.15-.06.3,0,.34s.22,0,.29-.18.05-.29,0-.33S28,21.45,27.9,21.59Z"/><path class="cls-35" d="M27.9,21.6c-.07.14,0,.28,0,.33s.22,0,.28-.18.06-.29,0-.33S28,21.46,27.9,21.6Z"/><path class="cls-36" d="M27.91,21.6c-.07.13-.06.28,0,.32s.2,0,.27-.17.05-.28,0-.32S28,21.46,27.91,21.6Z"/><path class="cls-37" d="M27.91,21.6c-.07.13-.05.27,0,.31s.2,0,.27-.16.05-.28,0-.32S28,21.47,27.91,21.6Z"/><path class="cls-38" d="M27.91,21.6c-.06.13-.05.27,0,.31s.2,0,.26-.17.05-.26,0-.3S28,21.47,27.91,21.6Z"/><path class="cls-39" d="M27.92,21.6c-.06.13-.05.26,0,.3s.19,0,.25-.16.05-.26,0-.29S28,21.48,27.92,21.6Z"/><path class="cls-40" d="M27.92,21.61c-.06.12-.05.25,0,.29s.19,0,.25-.16,0-.25,0-.29S28,21.48,27.92,21.61Z"/><path class="cls-41" d="M27.92,21.61c-.05.12,0,.24,0,.28s.18,0,.24-.15,0-.25,0-.28S28,21.49,27.92,21.61Z"/><path class="cls-42" d="M27.93,21.61c-.06.11-.05.24,0,.27s.17,0,.23-.14,0-.24,0-.28S28,21.49,27.93,21.61Z"/><path class="cls-43" d="M27.93,21.61c-.05.11,0,.23,0,.27s.17,0,.22-.14.05-.23,0-.27S28,21.5,27.93,21.61Z"/><path class="cls-44" d="M27.94,21.61c-.06.11-.05.23,0,.26s.17,0,.22-.14,0-.22,0-.25S28,21.5,27.94,21.61Z"/><path class="cls-45" d="M27.94,21.62c-.05.1,0,.21,0,.24s.16,0,.22-.13,0-.21,0-.25S28,21.51,27.94,21.62Z"/><path class="cls-46" d="M27.94,21.62c-.05.1,0,.21,0,.24s.15,0,.2-.13,0-.21,0-.24S28,21.52,27.94,21.62Z"/><path class="cls-47" d="M28,21.62c-.05.1,0,.2,0,.23s.15,0,.2-.12,0-.2,0-.23S28,21.52,28,21.62Z"/><path class="cls-48" d="M28,21.62c-.05.1,0,.2,0,.23s.15,0,.2-.12,0-.2,0-.23S28,21.53,28,21.62Z"/><path class="cls-49" d="M28,21.62c0,.1,0,.19,0,.22s.14,0,.18-.12,0-.18,0-.21S28,21.53,28,21.62Z"/><path class="cls-50" d="M28,21.63c0,.08,0,.18,0,.2s.13,0,.18-.11,0-.18,0-.21S28,21.54,28,21.63Z"/><path class="cls-51" d="M28,21.63c0,.08,0,.17,0,.2s.13,0,.17-.11,0-.17,0-.2S28,21.54,28,21.63Z"/><path class="cls-52" d="M28,21.63c0,.08,0,.17,0,.19s.12,0,.16-.1,0-.17,0-.19S28,21.55,28,21.63Z"/><path class="cls-53" d="M28,21.63c0,.08,0,.16,0,.18s.12,0,.16-.09,0-.16,0-.19S28,21.55,28,21.63Z"/><path class="cls-54" d="M28,21.63c0,.08,0,.16,0,.18a.13.13,0,0,0,.15-.09c0-.08,0-.16,0-.18S28,21.56,28,21.63Z"/><path class="cls-55" d="M28,21.63c0,.08,0,.15,0,.17s.11,0,.15-.09,0-.14,0-.16S28,21.56,28,21.63Z"/><path class="cls-56" d="M28,21.64c0,.06,0,.14,0,.16s.1,0,.13-.09,0-.14,0-.16S28,21.57,28,21.64Z"/><path class="cls-57" d="M28,21.64c0,.06,0,.13,0,.15s.1,0,.13-.08,0-.13,0-.15S28,21.57,28,21.64Z"/><path class="cls-58" d="M28,21.64c0,.06,0,.13,0,.14s.1,0,.13-.07,0-.13,0-.15S28,21.58,28,21.64Z"/><path class="cls-59" d="M28,21.64c0,.06,0,.12,0,.14s.09,0,.11-.07,0-.12,0-.14S28,21.58,28,21.64Z"/><path class="cls-60" d="M28,21.64c0,.06,0,.12,0,.13s.08,0,.11-.07,0-.11,0-.12A.09.09,0,0,0,28,21.64Z"/><path class="cls-61" d="M28,21.65c0,.05,0,.1,0,.12s.08,0,.11-.07a.1.1,0,0,0,0-.12S28,21.59,28,21.65Z"/><path class="cls-62" d="M28,21.65a.09.09,0,0,0,0,.11s.07,0,.09-.06,0-.1,0-.11S28,21.6,28,21.65Z"/><path class="cls-63" d="M28,21.65s0,.09,0,.1.07,0,.09-.05a.1.1,0,0,0,0-.11S28,21.61,28,21.65Z"/><path class="cls-64" d="M28,21.65a.09.09,0,0,0,0,.1s.06,0,.08-.05,0-.09,0-.1S28,21.61,28,21.65Z"/><path class="cls-65" d="M28,21.65s0,.08,0,.09,0,0,.07,0,0-.07,0-.08S28,21.62,28,21.65Z"/><path class="cls-66" d="M28,21.65s0,.07,0,.08,0,0,.07,0,0-.07,0-.08S28,21.62,28,21.65Z"/><path class="cls-67" d="M28,21.66s0,.06,0,.07,0,0,.06,0a.06.06,0,0,0,0-.07S28,21.63,28,21.66Z"/><path class="cls-68" d="M28,21.66a0,0,0,0,0,0,.06,0,0,0,0,0,.06,0s0-.06,0-.07A.06.06,0,0,0,28,21.66Z"/><path class="cls-69" d="M28,21.66s0,.05,0,.06l.05,0a.06.06,0,0,0,0-.06S28,21.64,28,21.66Z"/><path class="cls-70" d="M28,21.66a.07.07,0,0,0,0,.05s0,0,0,0,0-.05,0-.05A0,0,0,0,0,28,21.66Z"/><path class="cls-71" d="M28,21.66s0,0,0,0,0,0,0,0,0,0,0,0Z"/><path class="cls-72" d="M28,21.67a0,0,0,0,0,0,0s0,0,0,0,0,0,0,0S28.05,21.65,28,21.67Z"/><path class="cls-73" d="M28.05,21.67s0,0,0,0,0,0,0,0v0A0,0,0,0,0,28.05,21.67Z"/><path class="cls-74" d="M28.05,21.67v0h0s0,0,0,0A0,0,0,0,0,28.05,21.67Z"/><path class="cls-75" d="M28.05,21.67h0Z"/></g><path class="cls-78" d="M28.32,20.64a.36.36,0,0,0-.16.29h0c0,.27.34.05.34-.18h0C28.5,20.63,28.42,20.58,28.32,20.64Z"/><g class="cls-79"><rect class="cls-29" x="28.16" y="20.62" width="0.3" height="0.53"/><path class="cls-29" d="M28.14,20.76c0,.1,0,.21,0,.24s.16,0,.2-.14,0-.21,0-.23S28.19,20.66,28.14,20.76Z"/><path class="cls-30" d="M28.14,20.76c0,.1,0,.21,0,.23s.16,0,.2-.13,0-.2,0-.23S28.19,20.66,28.14,20.76Z"/><path class="cls-31" d="M28.15,20.76c0,.1,0,.2,0,.23s.14,0,.19-.13,0-.2,0-.23S28.19,20.66,28.15,20.76Z"/><path class="cls-32" d="M28.15,20.76c0,.1,0,.2,0,.23s.14,0,.18-.13,0-.2,0-.22S28.19,20.67,28.15,20.76Z"/><path class="cls-33" d="M28.15,20.77a.16.16,0,0,0,0,.21c.06,0,.14,0,.18-.12s0-.19,0-.22S28.19,20.67,28.15,20.77Z"/><path class="cls-34" d="M28.15,20.77c0,.09,0,.18,0,.21s.14,0,.18-.12,0-.19,0-.21S28.19,20.67,28.15,20.77Z"/><path class="cls-35" d="M28.16,20.77c0,.09,0,.18,0,.2s.14,0,.18-.11,0-.19,0-.21S28.2,20.68,28.16,20.77Z"/><path class="cls-36" d="M28.16,20.77a.16.16,0,0,0,0,.2c.06,0,.14,0,.17-.12a.16.16,0,0,0,0-.2C28.27,20.63,28.2,20.68,28.16,20.77Z"/><path class="cls-37" d="M28.16,20.77c0,.08,0,.17,0,.2s.12,0,.16-.12,0-.17,0-.19S28.2,20.68,28.16,20.77Z"/><path class="cls-38" d="M28.16,20.77c0,.08,0,.17,0,.19s.12,0,.16-.11,0-.17,0-.19S28.2,20.69,28.16,20.77Z"/><path class="cls-39" d="M28.17,20.77c0,.08,0,.17,0,.19s.12,0,.16-.11,0-.16,0-.18S28.2,20.69,28.17,20.77Z"/><path class="cls-40" d="M28.17,20.77c0,.08,0,.16,0,.18s.12,0,.15-.1,0-.16,0-.18S28.2,20.69,28.17,20.77Z"/><path class="cls-41" d="M28.17,20.77c0,.08,0,.16,0,.18s.12,0,.15-.1,0-.16,0-.18S28.21,20.7,28.17,20.77Z"/><path class="cls-42" d="M28.17,20.77c0,.08,0,.16,0,.18s.12,0,.15-.1,0-.15,0-.17S28.21,20.7,28.17,20.77Z"/><path class="cls-43" d="M28.18,20.78c0,.07,0,.14,0,.16s.1,0,.14-.09,0-.15,0-.17S28.21,20.7,28.18,20.78Z"/><path class="cls-44" d="M28.18,20.78c0,.07,0,.14,0,.16s.1,0,.13-.09,0-.15,0-.17S28.21,20.71,28.18,20.78Z"/><path class="cls-45" d="M28.18,20.78c0,.07,0,.14,0,.15s.1,0,.13-.08,0-.14,0-.16S28.21,20.71,28.18,20.78Z"/><path class="cls-46" d="M28.19,20.78c0,.06,0,.13,0,.15s.1,0,.13-.09a.12.12,0,0,0,0-.15A.11.11,0,0,0,28.19,20.78Z"/><path class="cls-47" d="M28.19,20.78c0,.06,0,.13,0,.15a.11.11,0,0,0,.12-.09c0-.06,0-.13,0-.14S28.21,20.72,28.19,20.78Z"/><path class="cls-48" d="M28.19,20.78c0,.06,0,.13,0,.14s.1,0,.12-.08,0-.12,0-.14S28.22,20.72,28.19,20.78Z"/><path class="cls-49" d="M28.19,20.78c0,.06,0,.12,0,.14s.08,0,.11-.08a.13.13,0,0,0,0-.14S28.22,20.72,28.19,20.78Z"/><path class="cls-50" d="M28.2,20.78c0,.06,0,.12,0,.13s.08,0,.11-.07,0-.12,0-.13S28.22,20.73,28.2,20.78Z"/><path class="cls-51" d="M28.2,20.78c0,.06,0,.12,0,.13s.08,0,.1-.07,0-.11,0-.13S28.22,20.73,28.2,20.78Z"/><path class="cls-52" d="M28.2,20.79a.1.1,0,0,0,0,.12s.08,0,.1-.07,0-.11,0-.12S28.22,20.73,28.2,20.79Z"/><path class="cls-53" d="M28.2,20.79c0,.05,0,.1,0,.11s.08,0,.1-.06,0-.11,0-.12S28.22,20.74,28.2,20.79Z"/><path class="cls-54" d="M28.21,20.79c0,.05,0,.09,0,.11a.1.1,0,0,0,.1-.06.1.1,0,0,0,0-.12S28.23,20.74,28.21,20.79Z"/><path class="cls-55" d="M28.21,20.79s0,.09,0,.1.07,0,.08-.06,0-.09,0-.1S28.23,20.74,28.21,20.79Z"/><path class="cls-56" d="M28.21,20.79s0,.09,0,.1.06,0,.08-.06,0-.09,0-.1S28.23,20.75,28.21,20.79Z"/><path class="cls-57" d="M28.21,20.79s0,.08,0,.1.06,0,.08-.06,0-.08,0-.09S28.23,20.75,28.21,20.79Z"/><path class="cls-58" d="M28.21,20.79s0,.08,0,.09.06,0,.08-.05,0-.08,0-.09S28.23,20.75,28.21,20.79Z"/><path class="cls-59" d="M28.22,20.79s0,.08,0,.09.06,0,.07-.05,0-.08,0-.09S28.23,20.76,28.22,20.79Z"/><path class="cls-60" d="M28.22,20.79s0,.07,0,.08a.06.06,0,0,0,.07,0s0-.07,0-.08S28.24,20.76,28.22,20.79Z"/><path class="cls-61" d="M28.22,20.79s0,.07,0,.08.05,0,.06,0,0-.07,0-.08S28.24,20.76,28.22,20.79Z"/><path class="cls-62" d="M28.23,20.8a0,0,0,0,0,0,.07.07.07,0,0,0,.06,0s0-.07,0-.07S28.24,20.77,28.23,20.8Z"/><path class="cls-63" d="M28.23,20.8s0,.05,0,.06,0,0,.05,0a0,0,0,0,0,0-.07S28.24,20.77,28.23,20.8Z"/><path class="cls-64" d="M28.23,20.8s0,.05,0,.06,0,0,.05,0,0-.05,0-.06A.05.05,0,0,0,28.23,20.8Z"/><path class="cls-65" d="M28.23,20.8s0,.05,0,.05,0,0,.05,0,0-.05,0-.05S28.24,20.77,28.23,20.8Z"/><path class="cls-66" d="M28.24,20.8s0,.05,0,.05,0,0,.05,0a0,0,0,0,0,0-.05S28.24,20.78,28.24,20.8Z"/><path class="cls-67" d="M28.24,20.8s0,0,0,.05a0,0,0,0,0,0,0s0,0,0,0S28.25,20.78,28.24,20.8Z"/><path class="cls-68" d="M28.24,20.8s0,0,0,0,0,0,0,0,0,0,0,0S28.25,20.79,28.24,20.8Z"/><path class="cls-69" d="M28.24,20.8s0,0,0,0l0,0s0,0,0,0Z"/><path class="cls-70" d="M28.25,20.8s0,0,0,0l0,0s0,0,0,0S28.25,20.79,28.25,20.8Z"/><path class="cls-71" d="M28.25,20.81a0,0,0,0,0,0,0h0s0,0,0,0S28.25,20.79,28.25,20.81Z"/><path class="cls-72" d="M28.25,20.81v0h0a0,0,0,0,0,0,0S28.25,20.8,28.25,20.81Z"/><path class="cls-73" d="M28.25,20.81a0,0,0,0,0,0,0s0,0,0,0h0Z"/><path class="cls-74" d="M28.26,20.81s0,0,0,0h0Z"/><polygon class="cls-75" points="28.26 20.81 28.26 20.82 28.26 20.81 28.26 20.81 28.26 20.81"/></g><path class="cls-80" d="M24.5,22.57a.37.37,0,0,0-.16.29h0c0,.27.34.06.34-.18h0A.11.11,0,0,0,24.5,22.57Z"/><g class="cls-81"><rect class="cls-29" x="24.34" y="22.55" width="0.3" height="0.53"/><path class="cls-29" d="M24.32,22.69c0,.11,0,.21,0,.24s.16,0,.2-.13,0-.21,0-.24S24.37,22.59,24.32,22.69Z"/><path class="cls-30" d="M24.33,22.69c0,.11,0,.21,0,.24s.15,0,.19-.14,0-.2,0-.23S24.37,22.59,24.33,22.69Z"/><path class="cls-31" d="M24.33,22.7c0,.09,0,.2,0,.22s.15,0,.19-.13,0-.2,0-.22S24.37,22.6,24.33,22.7Z"/><path class="cls-32" d="M24.33,22.7a.17.17,0,0,0,0,.22c.06,0,.14,0,.19-.13a.17.17,0,0,0,0-.22C24.46,22.55,24.37,22.6,24.33,22.7Z"/><path class="cls-33" d="M24.33,22.7c0,.09,0,.19,0,.21s.14,0,.18-.12,0-.19,0-.21S24.37,22.6,24.33,22.7Z"/><path class="cls-34" d="M24.34,22.7c0,.09,0,.19,0,.21s.14,0,.18-.12,0-.19,0-.21S24.38,22.61,24.34,22.7Z"/><path class="cls-35" d="M24.34,22.7a.17.17,0,0,0,0,.21c.06,0,.14,0,.18-.12a.16.16,0,0,0,0-.21C24.46,22.56,24.38,22.61,24.34,22.7Z"/><path class="cls-36" d="M24.34,22.7c0,.09,0,.18,0,.2s.13,0,.17-.11,0-.18,0-.2S24.38,22.61,24.34,22.7Z"/><path class="cls-37" d="M24.34,22.7c0,.09,0,.18,0,.2s.13,0,.16-.11,0-.18,0-.2S24.38,22.62,24.34,22.7Z"/><path class="cls-38" d="M24.35,22.7c0,.09,0,.17,0,.19s.12,0,.16-.1,0-.17,0-.2S24.38,22.62,24.35,22.7Z"/><path class="cls-39" d="M24.35,22.7c0,.09,0,.17,0,.19s.12,0,.16-.11,0-.16,0-.18A.14.14,0,0,0,24.35,22.7Z"/><path class="cls-40" d="M24.35,22.71c0,.07,0,.16,0,.18s.12,0,.15-.11,0-.16,0-.18S24.38,22.63,24.35,22.71Z"/><path class="cls-41" d="M24.35,22.71a.14.14,0,0,0,0,.17c.05,0,.12,0,.15-.1s0-.15,0-.17S24.39,22.63,24.35,22.71Z"/><path class="cls-42" d="M24.36,22.71c0,.07,0,.15,0,.17s.11,0,.14-.1,0-.15,0-.17S24.39,22.63,24.36,22.71Z"/><path class="cls-43" d="M24.36,22.71c0,.07,0,.14,0,.16s.11,0,.14-.09,0-.15,0-.17S24.39,22.64,24.36,22.71Z"/><path class="cls-44" d="M24.36,22.71c0,.07,0,.14,0,.16s.1,0,.13-.09,0-.14,0-.16S24.39,22.64,24.36,22.71Z"/><path class="cls-45" d="M24.36,22.71c0,.07,0,.14,0,.16s.1,0,.13-.09,0-.14,0-.16S24.39,22.64,24.36,22.71Z"/><path class="cls-46" d="M24.37,22.71c0,.07,0,.14,0,.15s.1,0,.13-.08,0-.14,0-.15S24.39,22.65,24.37,22.71Z"/><path class="cls-47" d="M24.37,22.71c0,.07,0,.13,0,.15s.1,0,.13-.08,0-.13,0-.15S24.4,22.65,24.37,22.71Z"/><path class="cls-48" d="M24.37,22.71c0,.07,0,.13,0,.14s.09,0,.11-.07,0-.13,0-.15S24.4,22.65,24.37,22.71Z"/><path class="cls-49" d="M24.38,22.72c0,.05,0,.12,0,.13s.09,0,.11-.08,0-.12,0-.13S24.4,22.66,24.38,22.72Z"/><path class="cls-50" d="M24.38,22.72a.09.09,0,0,0,0,.13s.08,0,.11-.08a.12.12,0,0,0,0-.13A.1.1,0,0,0,24.38,22.72Z"/><path class="cls-51" d="M24.38,22.72c0,.05,0,.11,0,.12s.08,0,.11-.07,0-.11,0-.12S24.4,22.66,24.38,22.72Z"/><path class="cls-52" d="M24.38,22.72c0,.05,0,.11,0,.12s.08,0,.1-.07,0-.11,0-.12S24.4,22.67,24.38,22.72Z"/><path class="cls-53" d="M24.38,22.72a.1.1,0,0,0,0,.12s.08,0,.1-.07a.1.1,0,0,0,0-.12S24.41,22.67,24.38,22.72Z"/><path class="cls-54" d="M24.39,22.72c0,.05,0,.1,0,.11s.07,0,.09-.06,0-.1,0-.11S24.41,22.67,24.39,22.72Z"/><path class="cls-55" d="M24.39,22.72c0,.05,0,.1,0,.11s.07,0,.09-.06a.09.09,0,0,0,0-.11S24.41,22.68,24.39,22.72Z"/><path class="cls-56" d="M24.39,22.72c0,.05,0,.09,0,.1s.06,0,.08-.05,0-.09,0-.1S24.41,22.68,24.39,22.72Z"/><path class="cls-57" d="M24.39,22.72c0,.05,0,.09,0,.1s.06,0,.08-.06,0-.08,0-.09S24.41,22.68,24.39,22.72Z"/><path class="cls-58" d="M24.4,22.73a.07.07,0,0,0,0,.09s.06,0,.08-.06a.06.06,0,0,0,0-.09S24.41,22.69,24.4,22.73Z"/><path class="cls-59" d="M24.4,22.73a.06.06,0,0,0,0,.08s.06,0,.08,0,0-.07,0-.08S24.42,22.69,24.4,22.73Z"/><path class="cls-60" d="M24.4,22.73s0,.07,0,.08,0,0,.06,0a.06.06,0,0,0,0-.08S24.42,22.69,24.4,22.73Z"/><path class="cls-61" d="M24.4,22.73s0,.07,0,.07,0,0,.06,0,0-.07,0-.07S24.42,22.7,24.4,22.73Z"/><path class="cls-62" d="M24.41,22.73a0,0,0,0,0,0,.07s0,0,.06,0,0-.06,0-.07S24.42,22.7,24.41,22.73Z"/><path class="cls-63" d="M24.41,22.73s0,.06,0,.07a.07.07,0,0,0,.06,0,.08.08,0,0,0,0-.07A.06.06,0,0,0,24.41,22.73Z"/><path class="cls-64" d="M24.41,22.73a.06.06,0,0,0,0,.06s0,0,0,0,0-.06,0-.06S24.42,22.71,24.41,22.73Z"/><path class="cls-65" d="M24.42,22.73a0,0,0,0,0,0,.06.05.05,0,0,0,0,0s0-.05,0-.06S24.43,22.71,24.42,22.73Z"/><path class="cls-66" d="M24.42,22.73s0,.05,0,.05,0,0,0,0,0-.05,0-.05S24.43,22.71,24.42,22.73Z"/><path class="cls-67" d="M24.42,22.74s0,0,0,0,0,0,0,0,0-.05,0-.05S24.43,22.72,24.42,22.74Z"/><path class="cls-68" d="M24.42,22.74a.06.06,0,0,0,0,0,0,0,0,0,0,0,0,0,0,0,0,0,0,0A.05.05,0,0,0,24.42,22.74Z"/><path class="cls-69" d="M24.43,22.74s0,0,0,0,0,0,0,0,0,0,0,0S24.43,22.72,24.43,22.74Z"/><path class="cls-70" d="M24.43,22.74a0,0,0,0,0,0,0l0,0a0,0,0,0,0,0,0Z"/><path class="cls-71" d="M24.43,22.74s0,0,0,0h0s0,0,0,0S24.44,22.73,24.43,22.74Z"/><path class="cls-72" d="M24.43,22.74s0,0,0,0a0,0,0,0,0,0,0s0,0,0,0Z"/><path class="cls-73" d="M24.44,22.74s0,0,0,0a0,0,0,0,0,0,0v0Z"/><path class="cls-74" d="M24.44,22.74h0Z"/><polygon class="cls-75" points="24.44 22.74 24.44 22.75 24.45 22.75 24.45 22.74 24.44 22.74"/></g><path class="cls-82" d="M25.13,23.48a.24.24,0,0,0-.11.19h0c0,.19.24,0,.24-.12h0C25.26,23.47,25.2,23.44,25.13,23.48Z"/><path class="cls-83" d="M25.12,23.5a.19.19,0,0,0-.1.16h0c0,.16.2,0,.2-.1h0C25.22,23.49,25.17,23.46,25.12,23.5Z"/><path class="cls-84" d="M27.74,22a.24.24,0,0,0-.11.2h0c0,.18.23,0,.23-.12h0C27.86,22,27.8,22,27.74,22Z"/><path class="cls-85" d="M27.72,22a.22.22,0,0,0-.09.17h0c0,.16.2,0,.2-.11h0C27.83,22,27.78,22,27.72,22Z"/><polygon class="cls-4" points="27.34 21.71 25.65 22.69 25.65 22.73 27.34 21.76 27.34 21.71"/><polygon class="cls-4" points="27.35 22.09 27.35 22.04 25.65 23.02 25.65 23.06 27.35 22.09"/><polygon class="cls-4" points="27.35 22.19 27.35 22.15 25.65 23.13 25.65 23.17 27.35 22.19"/><polygon class="cls-4" points="27.35 21.98 27.35 21.93 25.65 22.91 25.65 22.95 27.35 21.98"/><polygon class="cls-4" points="27.35 21.87 27.35 21.82 25.65 22.8 25.65 22.84 27.35 21.87"/><polygon class="cls-4" points="10.91 11.43 10.89 17.13 13.67 18.73 13.68 13.03 10.91 11.43"/><polygon class="cls-86" points="13.4 13.19 11.19 11.91 11.18 16.97 13.39 18.25 13.4 13.19"/><rect class="cls-4" x="12.2" y="12.46" width="0.18" height="5.22"/><path class="cls-87" d="M22.19,20.82a0,0,0,0,0-.08,0,.2.2,0,0,0,.08.14l.4.23s.08,0,.08-.05a.17.17,0,0,0-.08-.13Z"/><polygon class="cls-88" points="14.88 8.13 14.92 8.15 13.17 9.16 13.13 9.14 14.88 8.13"/><polygon class="cls-89" points="13.33 9.25 13.29 9.23 15.04 8.22 15.08 8.24 13.33 9.25"/><polygon class="cls-90" points="14.96 8.17 15 8.2 13.25 9.21 13.21 9.18 14.96 8.17"/><polygon class="cls-91" points="14.8 8.08 14.84 8.1 13.09 9.11 13.05 9.09 14.8 8.08"/><polygon class="cls-92" points="14.72 8.03 14.76 8.05 13.01 9.06 12.97 9.04 14.72 8.03"/><polygon class="cls-93" points="14.63 7.98 14.67 8.01 12.92 9.02 12.88 8.99 14.63 7.98"/><polygon class="cls-94" points="14.44 9.71 15.82 10.52 17.22 9.71 15.83 8.91 14.44 9.71"/><polygon class="cls-95" points="17.95 9.89 17.99 9.91 16.24 10.92 16.2 10.9 17.95 9.89"/><polygon class="cls-96" points="16.41 11.02 16.37 10.99 18.11 9.98 18.16 10.01 16.41 11.02"/><polygon class="cls-97" points="18.03 9.94 18.07 9.96 16.32 10.97 16.29 10.94 18.03 9.94"/><polygon class="cls-98" points="17.87 9.84 17.91 9.86 16.16 10.87 16.12 10.85 17.87 9.84"/><polygon class="cls-99" points="17.79 9.79 17.83 9.82 16.08 10.82 16.04 10.8 17.79 9.79"/><polygon class="cls-100" points="17.71 9.75 17.75 9.77 16 10.78 15.96 10.76 17.71 9.75"/><path class="cls-101" d="M23.47,19.08a3.17,3.17,0,0,0-1.33-2l-.6-.34.13,3.36,2.09,1.29Z"/><polygon class="cls-102" points="10.21 5.23 7.21 6.96 7.15 6.93 10.15 5.2 10.21 5.23"/><polygon class="cls-102" points="10.33 5.3 7.33 7.03 7.27 7 10.27 5.26 10.33 5.3"/><polygon class="cls-102" points="10.44 5.37 7.44 7.1 7.38 7.06 10.38 5.33 10.44 5.37"/><polygon class="cls-102" points="10.56 5.43 7.56 7.17 7.5 7.13 10.5 5.4 10.56 5.43"/><polygon class="cls-102" points="10.68 5.5 7.67 7.23 7.62 7.2 10.62 5.47 10.68 5.5"/><polygon class="cls-102" points="10.79 5.57 7.79 7.3 7.73 7.27 10.73 5.54 10.79 5.57"/><polygon class="cls-102" points="9.46 4.8 9.51 4.83 6.51 6.57 6.46 6.54 9.46 4.8"/><polygon class="cls-102" points="9.63 4.9 6.63 6.64 6.58 6.6 9.57 4.87 9.63 4.9"/><polygon class="cls-102" points="9.75 4.97 6.75 6.7 6.69 6.67 9.69 4.94 9.75 4.97"/><polygon class="cls-102" points="9.86 5.04 6.86 6.77 6.81 6.74 9.81 5.01 9.86 5.04"/><polygon class="cls-102" points="9.98 5.11 6.98 6.84 6.92 6.81 9.93 5.07 9.98 5.11"/><polygon class="cls-102" points="10.1 5.17 7.1 6.91 7.04 6.87 10.04 5.14 10.1 5.17"/></svg>